<svg width="26" height="26" viewBox="0 0 26 26" fill="none" xmlns="http://www.w3.org/2000/svg">
<path d="M6.5 2.16666L3.25 6.49999V21.6667C3.25 22.2413 3.47827 22.7924 3.8846 23.1987C4.29093 23.605 4.84203 23.8333 5.41667 23.8333H20.5833C21.158 23.8333 21.7091 23.605 22.1154 23.1987C22.5217 22.7924 22.75 22.2413 22.75 21.6667V6.49999L19.5 2.16666H6.5Z" stroke="black" stroke-width="2" stroke-linecap="round" stroke-linejoin="round"/>
<path d="M3.25 6.5H22.75" stroke="black" stroke-width="2" stroke-linecap="round" stroke-linejoin="round"/>
<path d="M17.3333 10.8333C17.3333 11.9826 16.8767 13.0848 16.0641 13.8975C15.2514 14.7101 14.1492 15.1667 13 15.1667C11.8507 15.1667 10.7485 14.7101 9.93583 13.8975C9.12317 13.0848 8.66663 11.9826 8.66663 10.8333" stroke="black" stroke-width="2" stroke-linecap="round" stroke-linejoin="round"/>
</svg>
