<svg width="16" height="16" viewBox="0 0 16 16" fill="none" xmlns="http://www.w3.org/2000/svg">
<g clip-path="url(#clip0_330_546)">
<path d="M15.5599 4.44072L14.1192 5.88135C13.9724 6.02822 13.7349 6.02822 13.588 5.88135L10.1192 2.4126C9.97235 2.26572 9.97235 2.02822 10.1192 1.88135L11.5599 0.440723C12.1442 -0.143652 13.0942 -0.143652 13.6817 0.440723L15.5599 2.31885C16.1474 2.90322 16.1474 3.85322 15.5599 4.44072ZM8.88173 3.11885L0.67548 11.3251L0.0129802 15.122C-0.0776448 15.6345 0.36923 16.0782 0.88173 15.9907L4.6786 15.3251L12.8849 7.11885C13.0317 6.97197 13.0317 6.73447 12.8849 6.5876L9.4161 3.11885C9.2661 2.97197 9.02861 2.97197 8.88173 3.11885ZM3.8786 10.622C3.70673 10.4501 3.70673 10.1751 3.8786 10.0032L8.6911 5.19072C8.86298 5.01885 9.13798 5.01885 9.30985 5.19072C9.48173 5.3626 9.48173 5.6376 9.30985 5.80947L4.49735 10.622C4.32548 10.7938 4.05048 10.7938 3.8786 10.622ZM2.75048 13.2501H4.25048V14.3845L2.23485 14.7376L1.26298 13.7657L1.61611 11.7501H2.75048V13.2501Z" fill="#FD475A"/>
</g>
<defs>
<clipPath id="clip0_330_546">
<rect width="16" height="16" fill="white"/>
</clipPath>
</defs>
</svg>
